<mxfile host="app.diagrams.net" agent="Mozilla/5.0 (Windows NT 10.0; Win64; x64) AppleWebKit/537.36 (KHTML, like Gecko) Chrome/138.0.0.0 Safari/537.36 Edg/138.0.0.0" version="28.0.7">
  <diagram name="Page-1" id="e3a06f82-3646-2815-327d-82caf3d4e204">
    <mxGraphModel dx="1651" dy="1193" grid="1" gridSize="10" guides="1" tooltips="1" connect="1" arrows="1" fold="1" page="1" pageScale="1.5" pageWidth="1169" pageHeight="826" background="none" math="0" shadow="0">
      <root>
        <mxCell id="0" style=";html=1;" />
        <mxCell id="1" style=";html=1;" parent="0" />
        <mxCell id="P7BTm-_L4cfaCm62bloA-16" value="" style="rounded=1;whiteSpace=wrap;html=1;fillColor=#fff2cc;strokeColor=#d6b656;" vertex="1" parent="1">
          <mxGeometry x="420" y="690" width="685" height="300" as="geometry" />
        </mxCell>
        <mxCell id="P7BTm-_L4cfaCm62bloA-32" value="" style="rounded=1;whiteSpace=wrap;html=1;" vertex="1" parent="1">
          <mxGeometry x="445" y="790" width="298" height="145" as="geometry" />
        </mxCell>
        <mxCell id="P7BTm-_L4cfaCm62bloA-34" value="" style="rounded=1;whiteSpace=wrap;html=1;" vertex="1" parent="1">
          <mxGeometry x="785" y="790" width="298" height="145" as="geometry" />
        </mxCell>
        <mxCell id="P7BTm-_L4cfaCm62bloA-14" value="" style="rounded=1;whiteSpace=wrap;html=1;fillColor=#b0e3e6;strokeColor=#0e8088;" vertex="1" parent="1">
          <mxGeometry x="515" y="170" width="400" height="220" as="geometry" />
        </mxCell>
        <mxCell id="P7BTm-_L4cfaCm62bloA-8" style="edgeStyle=orthogonalEdgeStyle;rounded=0;orthogonalLoop=1;jettySize=auto;html=1;endArrow=block;endFill=1;" edge="1" parent="1" source="P7BTm-_L4cfaCm62bloA-5" target="P7BTm-_L4cfaCm62bloA-6">
          <mxGeometry relative="1" as="geometry" />
        </mxCell>
        <mxCell id="P7BTm-_L4cfaCm62bloA-9" value="&lt;span&gt;&lt;font style=&quot;font-size: 15px;&quot;&gt;RÃ©plication AD&lt;/font&gt;&lt;/span&gt;" style="edgeStyle=orthogonalEdgeStyle;rounded=0;orthogonalLoop=1;jettySize=auto;html=1;endArrow=block;endFill=1;fontStyle=1" edge="1" parent="1" source="P7BTm-_L4cfaCm62bloA-6" target="P7BTm-_L4cfaCm62bloA-5">
          <mxGeometry relative="1" as="geometry" />
        </mxCell>
        <mxCell id="P7BTm-_L4cfaCm62bloA-15" value="[z2]services-elbe" style="text;strokeColor=none;align=center;fillColor=none;html=1;verticalAlign=middle;whiteSpace=wrap;rounded=0;fontSize=18;fontStyle=1;fontColor=light-dark(#CC6600,#24CBF7);" vertex="1" parent="1">
          <mxGeometry x="625" y="170" width="170" height="30" as="geometry" />
        </mxCell>
        <mxCell id="P7BTm-_L4cfaCm62bloA-21" value="[z2]intranet-elbe" style="text;strokeColor=none;align=center;fillColor=none;html=1;verticalAlign=middle;whiteSpace=wrap;rounded=0;fontSize=18;fontStyle=1;fontColor=light-dark(#5C79A3,#24CBF7);" vertex="1" parent="1">
          <mxGeometry x="685" y="690" width="170" height="30" as="geometry" />
        </mxCell>
        <mxCell id="P7BTm-_L4cfaCm62bloA-23" value="" style="group" vertex="1" connectable="0" parent="1">
          <mxGeometry x="555" y="250" width="120" height="108" as="geometry" />
        </mxCell>
        <mxCell id="P7BTm-_L4cfaCm62bloA-5" value="ELBE-N998" style="sketch=0;pointerEvents=1;shadow=0;dashed=0;html=1;labelPosition=center;verticalLabelPosition=bottom;verticalAlign=top;outlineConnect=0;align=center;shape=mxgraph.office.servers.domain_controller;fillColor=#505050;strokeColor=#d79b00;fontStyle=1;fontSize=15;fontColor=#994C00;fontFamily=Helvetica;" vertex="1" parent="P7BTm-_L4cfaCm62bloA-23">
          <mxGeometry x="37.5" width="45" height="55" as="geometry" />
        </mxCell>
        <mxCell id="P7BTm-_L4cfaCm62bloA-10" value="179.105.12.98/27" style="text;strokeColor=none;align=center;fillColor=none;html=1;verticalAlign=middle;whiteSpace=wrap;rounded=0;fontSize=15;fontStyle=1" vertex="1" parent="P7BTm-_L4cfaCm62bloA-23">
          <mxGeometry y="78" width="120" height="30" as="geometry" />
        </mxCell>
        <mxCell id="P7BTm-_L4cfaCm62bloA-24" value="" style="group" vertex="1" connectable="0" parent="1">
          <mxGeometry x="765" y="250" width="120" height="108" as="geometry" />
        </mxCell>
        <mxCell id="P7BTm-_L4cfaCm62bloA-6" value="ELBE-N999" style="sketch=0;pointerEvents=1;shadow=0;dashed=0;html=1;strokeColor=#d79b00;fillColor=#505050;labelPosition=center;verticalLabelPosition=bottom;verticalAlign=top;outlineConnect=0;align=center;shape=mxgraph.office.servers.domain_controller;fontSize=15;fontStyle=1;fontColor=#994C00;fontFamily=Helvetica;" vertex="1" parent="P7BTm-_L4cfaCm62bloA-24">
          <mxGeometry x="37.5" width="45" height="55" as="geometry" />
        </mxCell>
        <mxCell id="P7BTm-_L4cfaCm62bloA-11" value="179.105.12.99/27" style="text;strokeColor=none;align=center;fillColor=none;html=1;verticalAlign=middle;whiteSpace=wrap;rounded=0;fontSize=15;fontStyle=1" vertex="1" parent="P7BTm-_L4cfaCm62bloA-24">
          <mxGeometry y="78" width="120" height="30" as="geometry" />
        </mxCell>
        <mxCell id="P7BTm-_L4cfaCm62bloA-27" value="" style="group" vertex="1" connectable="0" parent="1">
          <mxGeometry x="453" y="830" width="290" height="110" as="geometry" />
        </mxCell>
        <mxCell id="P7BTm-_L4cfaCm62bloA-25" value="ELBE-V981" style="sketch=0;pointerEvents=1;shadow=0;dashed=0;html=1;strokeColor=none;fillColor=#505050;labelPosition=center;verticalLabelPosition=bottom;verticalAlign=top;outlineConnect=0;align=center;shape=mxgraph.office.servers.application_server_orange;fontColor=light-dark(#e00000, #ededed);fontStyle=1;fontSize=15;" vertex="1" parent="P7BTm-_L4cfaCm62bloA-27">
          <mxGeometry x="32.5" width="46" height="56" as="geometry" />
        </mxCell>
        <mxCell id="P7BTm-_L4cfaCm62bloA-26" value="179.105.13.81/24" style="text;strokeColor=none;align=center;fillColor=none;html=1;verticalAlign=middle;whiteSpace=wrap;rounded=0;fontSize=15;fontStyle=1" vertex="1" parent="P7BTm-_L4cfaCm62bloA-27">
          <mxGeometry y="80" width="122" height="20" as="geometry" />
        </mxCell>
        <mxCell id="P7BTm-_L4cfaCm62bloA-28" value="" style="group" vertex="1" connectable="0" parent="1">
          <mxGeometry x="605" y="830" width="122" height="100" as="geometry" />
        </mxCell>
        <mxCell id="P7BTm-_L4cfaCm62bloA-29" value="ELBE-V982" style="sketch=0;pointerEvents=1;shadow=0;dashed=0;html=1;strokeColor=none;fillColor=#505050;labelPosition=center;verticalLabelPosition=bottom;verticalAlign=top;outlineConnect=0;align=center;shape=mxgraph.office.servers.application_server_orange;fontColor=light-dark(#e00000, #ededed);fontStyle=1;fontSize=15;" vertex="1" parent="P7BTm-_L4cfaCm62bloA-28">
          <mxGeometry x="32.5" width="46" height="56" as="geometry" />
        </mxCell>
        <mxCell id="P7BTm-_L4cfaCm62bloA-30" value="179.105.13.81/24" style="text;strokeColor=none;align=center;fillColor=none;html=1;verticalAlign=middle;whiteSpace=wrap;rounded=0;fontSize=15;fontStyle=1" vertex="1" parent="P7BTm-_L4cfaCm62bloA-28">
          <mxGeometry y="80" width="122" height="20" as="geometry" />
        </mxCell>
        <mxCell id="P7BTm-_L4cfaCm62bloA-22" value="" style="group" vertex="1" connectable="0" parent="1">
          <mxGeometry x="795" y="835" width="120" height="100" as="geometry" />
        </mxCell>
        <mxCell id="P7BTm-_L4cfaCm62bloA-31" value="" style="group" vertex="1" connectable="0" parent="P7BTm-_L4cfaCm62bloA-22">
          <mxGeometry width="120" height="100" as="geometry" />
        </mxCell>
        <mxCell id="P7BTm-_L4cfaCm62bloA-7" value="ELBE-V909" style="sketch=0;pointerEvents=1;shadow=0;dashed=0;html=1;strokeColor=#7EA6E0;labelPosition=center;verticalLabelPosition=bottom;verticalAlign=top;align=center;fillColor=#505050;shape=mxgraph.mscae.system_center.management_point;fontSize=15;fontStyle=1;fillStyle=auto;fontColor=#5C79A3;" vertex="1" parent="P7BTm-_L4cfaCm62bloA-31">
          <mxGeometry x="36" width="48" height="50" as="geometry" />
        </mxCell>
        <mxCell id="P7BTm-_L4cfaCm62bloA-12" value="179.105.13.9/24" style="text;strokeColor=none;align=center;fillColor=none;html=1;verticalAlign=middle;whiteSpace=wrap;rounded=0;fontSize=15;fontStyle=1" vertex="1" parent="P7BTm-_L4cfaCm62bloA-31">
          <mxGeometry y="70" width="120" height="30" as="geometry" />
        </mxCell>
        <mxCell id="P7BTm-_L4cfaCm62bloA-36" value="Administration" style="text;strokeColor=none;align=center;fillColor=none;html=1;verticalAlign=middle;whiteSpace=wrap;rounded=0;fontStyle=1" vertex="1" parent="1">
          <mxGeometry x="805" y="790" width="260" height="30" as="geometry" />
        </mxCell>
        <mxCell id="P7BTm-_L4cfaCm62bloA-37" value="Ferme RDS" style="text;strokeColor=none;align=center;fillColor=none;html=1;verticalAlign=middle;whiteSpace=wrap;rounded=0;fontStyle=1" vertex="1" parent="1">
          <mxGeometry x="475" y="790" width="240" height="30" as="geometry" />
        </mxCell>
        <mxCell id="P7BTm-_L4cfaCm62bloA-41" value="List" style="swimlane;fontStyle=0;childLayout=stackLayout;horizontal=1;startSize=30;horizontalStack=0;resizeParent=1;resizeParentMax=0;resizeLast=0;collapsible=1;marginBottom=0;whiteSpace=wrap;html=1;" vertex="1" parent="1">
          <mxGeometry x="940" y="430" width="140" height="120" as="geometry" />
        </mxCell>
        <mxCell id="P7BTm-_L4cfaCm62bloA-42" value="Item 1" style="text;strokeColor=none;fillColor=none;align=left;verticalAlign=middle;spacingLeft=4;spacingRight=4;overflow=hidden;points=[[0,0.5],[1,0.5]];portConstraint=eastwest;rotatable=0;whiteSpace=wrap;html=1;" vertex="1" parent="P7BTm-_L4cfaCm62bloA-41">
          <mxGeometry y="30" width="140" height="30" as="geometry" />
        </mxCell>
        <mxCell id="P7BTm-_L4cfaCm62bloA-43" value="Item 2" style="text;strokeColor=none;fillColor=none;align=left;verticalAlign=middle;spacingLeft=4;spacingRight=4;overflow=hidden;points=[[0,0.5],[1,0.5]];portConstraint=eastwest;rotatable=0;whiteSpace=wrap;html=1;" vertex="1" parent="P7BTm-_L4cfaCm62bloA-41">
          <mxGeometry y="60" width="140" height="30" as="geometry" />
        </mxCell>
        <mxCell id="P7BTm-_L4cfaCm62bloA-44" value="Item 3" style="text;strokeColor=none;fillColor=none;align=left;verticalAlign=middle;spacingLeft=4;spacingRight=4;overflow=hidden;points=[[0,0.5],[1,0.5]];portConstraint=eastwest;rotatable=0;whiteSpace=wrap;html=1;" vertex="1" parent="P7BTm-_L4cfaCm62bloA-41">
          <mxGeometry y="90" width="140" height="30" as="geometry" />
        </mxCell>
        <mxCell id="P7BTm-_L4cfaCm62bloA-45" value="ports" style="swimlane;fontStyle=0;childLayout=stackLayout;horizontal=1;startSize=30;horizontalStack=0;resizeParent=1;resizeParentMax=0;resizeLast=0;collapsible=1;marginBottom=0;whiteSpace=wrap;html=1;" vertex="1" parent="1">
          <mxGeometry x="270" y="450" width="140" height="120" as="geometry" />
        </mxCell>
        <mxCell id="P7BTm-_L4cfaCm62bloA-46" value="Item 1" style="text;strokeColor=none;fillColor=none;align=left;verticalAlign=middle;spacingLeft=4;spacingRight=4;overflow=hidden;points=[[0,0.5],[1,0.5]];portConstraint=eastwest;rotatable=0;whiteSpace=wrap;html=1;" vertex="1" parent="P7BTm-_L4cfaCm62bloA-45">
          <mxGeometry y="30" width="140" height="30" as="geometry" />
        </mxCell>
        <mxCell id="P7BTm-_L4cfaCm62bloA-47" value="Item 2" style="text;strokeColor=none;fillColor=none;align=left;verticalAlign=middle;spacingLeft=4;spacingRight=4;overflow=hidden;points=[[0,0.5],[1,0.5]];portConstraint=eastwest;rotatable=0;whiteSpace=wrap;html=1;" vertex="1" parent="P7BTm-_L4cfaCm62bloA-45">
          <mxGeometry y="60" width="140" height="30" as="geometry" />
        </mxCell>
        <mxCell id="P7BTm-_L4cfaCm62bloA-48" value="Item 3" style="text;strokeColor=none;fillColor=none;align=left;verticalAlign=middle;spacingLeft=4;spacingRight=4;overflow=hidden;points=[[0,0.5],[1,0.5]];portConstraint=eastwest;rotatable=0;whiteSpace=wrap;html=1;" vertex="1" parent="P7BTm-_L4cfaCm62bloA-45">
          <mxGeometry y="90" width="140" height="30" as="geometry" />
        </mxCell>
        <mxCell id="P7BTm-_L4cfaCm62bloA-49" value="" style="endArrow=classic;html=1;rounded=0;entryX=0.044;entryY=0.975;entryDx=0;entryDy=0;entryPerimeter=0;exitX=0.134;exitY=0.002;exitDx=0;exitDy=0;exitPerimeter=0;" edge="1" parent="1" source="P7BTm-_L4cfaCm62bloA-16" target="P7BTm-_L4cfaCm62bloA-14">
          <mxGeometry width="50" height="50" relative="1" as="geometry">
            <mxPoint x="480" y="520" as="sourcePoint" />
            <mxPoint x="530" y="470" as="targetPoint" />
          </mxGeometry>
        </mxCell>
        <mxCell id="P7BTm-_L4cfaCm62bloA-50" value="List" style="swimlane;fontStyle=0;childLayout=stackLayout;horizontal=1;startSize=30;horizontalStack=0;resizeParent=1;resizeParentMax=0;resizeLast=0;collapsible=1;marginBottom=0;whiteSpace=wrap;html=1;" vertex="1" parent="1">
          <mxGeometry x="605" y="460" width="140" height="120" as="geometry" />
        </mxCell>
        <mxCell id="P7BTm-_L4cfaCm62bloA-51" value="Item 1" style="text;strokeColor=none;fillColor=none;align=left;verticalAlign=middle;spacingLeft=4;spacingRight=4;overflow=hidden;points=[[0,0.5],[1,0.5]];portConstraint=eastwest;rotatable=0;whiteSpace=wrap;html=1;" vertex="1" parent="P7BTm-_L4cfaCm62bloA-50">
          <mxGeometry y="30" width="140" height="30" as="geometry" />
        </mxCell>
        <mxCell id="P7BTm-_L4cfaCm62bloA-52" value="Item 2" style="text;strokeColor=none;fillColor=none;align=left;verticalAlign=middle;spacingLeft=4;spacingRight=4;overflow=hidden;points=[[0,0.5],[1,0.5]];portConstraint=eastwest;rotatable=0;whiteSpace=wrap;html=1;" vertex="1" parent="P7BTm-_L4cfaCm62bloA-50">
          <mxGeometry y="60" width="140" height="30" as="geometry" />
        </mxCell>
        <mxCell id="P7BTm-_L4cfaCm62bloA-53" value="Item 3" style="text;strokeColor=none;fillColor=none;align=left;verticalAlign=middle;spacingLeft=4;spacingRight=4;overflow=hidden;points=[[0,0.5],[1,0.5]];portConstraint=eastwest;rotatable=0;whiteSpace=wrap;html=1;" vertex="1" parent="P7BTm-_L4cfaCm62bloA-50">
          <mxGeometry y="90" width="140" height="30" as="geometry" />
        </mxCell>
        <mxCell id="P7BTm-_L4cfaCm62bloA-54" value="" style="endArrow=classic;html=1;rounded=0;exitX=0.75;exitY=0;exitDx=0;exitDy=0;entryX=0.947;entryY=0.981;entryDx=0;entryDy=0;entryPerimeter=0;" edge="1" parent="1" source="P7BTm-_L4cfaCm62bloA-16" target="P7BTm-_L4cfaCm62bloA-14">
          <mxGeometry width="50" height="50" relative="1" as="geometry">
            <mxPoint x="820" y="550" as="sourcePoint" />
            <mxPoint x="870" y="500" as="targetPoint" />
          </mxGeometry>
        </mxCell>
        <mxCell id="P7BTm-_L4cfaCm62bloA-55" value="" style="endArrow=classic;html=1;rounded=0;exitX=0.147;exitY=0.998;exitDx=0;exitDy=0;exitPerimeter=0;entryX=0.197;entryY=0.011;entryDx=0;entryDy=0;entryPerimeter=0;" edge="1" parent="1" source="P7BTm-_L4cfaCm62bloA-14" target="P7BTm-_L4cfaCm62bloA-16">
          <mxGeometry width="50" height="50" relative="1" as="geometry">
            <mxPoint x="140" y="370" as="sourcePoint" />
            <mxPoint x="70" y="610" as="targetPoint" />
          </mxGeometry>
        </mxCell>
        <mxCell id="P7BTm-_L4cfaCm62bloA-56" value="" style="endArrow=classic;html=1;rounded=0;entryX=0.71;entryY=-0.014;entryDx=0;entryDy=0;entryPerimeter=0;exitX=0.882;exitY=1.009;exitDx=0;exitDy=0;exitPerimeter=0;" edge="1" parent="1" source="P7BTm-_L4cfaCm62bloA-14" target="P7BTm-_L4cfaCm62bloA-16">
          <mxGeometry width="50" height="50" relative="1" as="geometry">
            <mxPoint x="810" y="480" as="sourcePoint" />
            <mxPoint x="860" y="430" as="targetPoint" />
          </mxGeometry>
        </mxCell>
      </root>
    </mxGraphModel>
  </diagram>
</mxfile>
